<?xml version="1.0" encoding="UTF-8" standalone="no"?>
<!-- <svg height="53.333"</svg> -->

<svg
   id="svg51"
   width="180"
   height="40"
   version="1.1"
   viewBox="0 0 180 53.333"
   xml:space="preserve"
   sodipodi:docname="WebApp.svg"
   inkscape:version="1.2.2 (b0a84865, 2022-12-01)"
   xmlns:inkscape="http://www.inkscape.org/namespaces/inkscape"
   xmlns:sodipodi="http://sodipodi.sourceforge.net/DTD/sodipodi-0.dtd"
   xmlns="http://www.w3.org/2000/svg"
   xmlns:svg="http://www.w3.org/2000/svg"
   xmlns:rdf="http://www.w3.org/1999/02/22-rdf-syntax-ns#"
   xmlns:cc="http://creativecommons.org/ns#"
   xmlns:dc="http://purl.org/dc/elements/1.1/"><defs
     id="defs144" /><sodipodi:namedview
     id="namedview142"
     pagecolor="#ffffff"
     bordercolor="#666666"
     borderopacity="1.0"
     inkscape:showpageshadow="2"
     inkscape:pageopacity="0.0"
     inkscape:pagecheckerboard="0"
     inkscape:deskcolor="#d1d1d1"
     showgrid="false"
     inkscape:zoom="4.9376954"
     inkscape:cx="76.047623"
     inkscape:cy="19.037221"
     inkscape:window-width="1488"
     inkscape:window-height="484"
     inkscape:window-x="0"
     inkscape:window-y="25"
     inkscape:window-maximized="0"
     inkscape:current-layer="svg51" /><metadata
     id="metadata9"><rdf:RDF><cc:Work
         rdf:about=""><dc:format>image/svg+xml</dc:format><dc:type
           rdf:resource="http://purl.org/dc/dcmitype/StillImage" /></cc:Work></rdf:RDF></metadata><path
     id="path11"
     d="m 143.99685,53.333 h -166.66 c -3.6666,0 -6.6665,-2.9999 -6.6665,-6.6665 V 6.6675 c 0,-3.6666 2.9999,-6.6665 6.6665,-6.6665 h 166.66 c 3.6666,0 6.6665,2.9999 6.6665,6.6665 v 39.999 c 0,3.6666 -2.9999,6.6665 -6.6665,6.6665"
     fill="#100f0d"
     stroke-width="0.13333" /><path
     id="path13"
     d="m 143.99685,0.001 h -166.66 c -3.6666,0 -6.6665,2.9999 -6.6665,6.6665 v 39.999 c 0,3.6666 2.9999,6.6665 6.6665,6.6665 h 166.66 c 3.6666,0 6.6665,-2.9999 6.6665,-6.6665 V 6.6675 c 0,-3.6666 -2.9999,-6.6665 -6.6665,-6.6665 z m 0,1.0661 c 3.0879,0 5.5999,2.5125 5.5999,5.6004 v 39.999 c 0,3.0879 -2.5119,5.6004 -5.5999,5.6004 h -166.66 c -3.0879,0 -5.5993,-2.5125 -5.5993,-5.6004 V 6.6675 c 0,-3.0879 2.5114,-5.6004 5.5993,-5.6004 h 166.66"
     fill="#a2a2a1"
     stroke-width="0.13333" /><path
     id="path35"
     d="m 142.58,40 h 2.4879 V 23.331 H 142.58 Z m 22.409,-10.664 -2.8519,7.2264 h -0.0853 l -2.9599,-7.2264 h -2.6799 l 4.4399,10.1 -2.5319,5.6185 h 2.5946 l 6.8412,-15.718 z m -14.11,8.7706 c -0.81331,0 -1.9506,-0.40786 -1.9506,-1.4156 0,-1.2865 1.416,-1.7797 2.6373,-1.7797 1.0933,0 1.6093,0.23546 2.2733,0.55732 -0.19333,1.5442 -1.5226,2.6379 -2.9599,2.6379 z m 0.30133,-9.1352 c -1.8013,0 -3.6666,0.79371 -4.4386,2.5521 l 2.208,0.92184 c 0.47198,-0.92184 1.3506,-1.2218 2.2733,-1.2218 1.2866,0 2.5946,0.77131 2.6159,2.1442 v 0.17133 c -0.45066,-0.25733 -1.416,-0.64318 -2.5946,-0.64318 -2.3813,0 -4.8039,1.3077 -4.8039,3.7524 0,2.2302 1.952,3.6671 4.1386,3.6671 1.672,0 2.5959,-0.75054 3.1732,-1.6301 h 0.0867 v 1.2874 h 2.4026 v -6.391 c 0,-2.9593 -2.2106,-4.6103 -5.0612,-4.6103 z m -15.376,2.3937 h -3.5386 v -5.7133 h 3.5386 c 1.86,0 2.9159,1.5396 2.9159,2.8566 0,1.2917 -1.056,2.8567 -2.9159,2.8567 z m -0.064,-8.0337 h -5.9614 v 16.669 h 2.4869 v -6.3149 h 3.4746 c 2.7573,0 5.4679,-1.9958 5.4679,-5.1765 0,-3.1801 -2.7106,-5.1769 -5.4679,-5.1769 z m -32.507,14.778 c -1.7188,0 -3.1573,-1.4396 -3.1573,-3.415 0,-1.9984 1.4385,-3.4583 3.1573,-3.4583 1.6969,0 3.0286,1.46 3.0286,3.4583 0,1.9754 -1.3317,3.415 -3.0286,3.415 z m 2.8567,-7.8403 h -0.086 c -0.55826,-0.66572 -1.6328,-1.2672 -2.9853,-1.2672 -2.8359,0 -5.4348,2.4921 -5.4348,5.6925 0,3.1786 2.5989,5.6488 5.4348,5.6488 1.3525,0 2.427,-0.6016 2.9853,-1.2885 h 0.086 v 0.81558 c 0,2.1703 -1.1598,3.3296 -3.0286,3.3296 -1.5245,0 -2.4697,-1.0953 -2.8567,-2.0188 l -2.1691,0.90206 c 0.62238,1.503 2.2759,3.351 5.0259,3.351 2.9218,0 5.392,-1.7188 5.392,-5.9077 v -10.181 h -2.3634 z m 4.0822,9.7304 h 2.4906 v -16.669 h -2.4906 z m 6.164,-5.4988 c -0.0641,-2.1911 1.6978,-3.3078 2.9645,-3.3078 0.98851,0 1.8254,0.49425 2.1057,1.2026 z m 7.7326,-1.8906 c -0.47238,-1.2666 -1.9114,-3.6082 -4.8541,-3.6082 -2.9218,0 -5.3488,2.2983 -5.3488,5.6707 0,3.1791 2.4062,5.6707 5.6275,5.6707 2.5989,0 4.1031,-1.589 4.7264,-2.513 l -1.9333,-1.289 c -0.64465,0.94531 -1.5249,1.5682 -2.7931,1.5682 -1.2666,0 -2.1692,-0.58012 -2.7483,-1.7186 l 7.5815,-3.1359 z m -60.409,-1.8682 v 2.4057 h 5.7565 c -0.17186,1.3532 -0.62292,2.3411 -1.3104,3.0286 -0.83798,0.83745 -2.1483,1.7614 -4.4462,1.7614 -3.5443,0 -6.315,-2.8567 -6.315,-6.4009 0,-3.5442 2.7707,-6.4013 6.315,-6.4013 1.9118,0 3.3077,0.75198 4.3388,1.7186 l 1.6974,-1.6973 c -1.4396,-1.3745 -3.351,-2.427 -6.0362,-2.427 -4.8552,0 -8.9363,3.9524 -8.9363,8.807 0,4.8541 4.0811,8.8066 8.9363,8.8066 2.6202,0 4.5967,-0.85932 6.143,-2.4702 1.5896,-1.5896 2.0838,-3.8234 2.0838,-5.628 0,-0.55785 -0.04333,-1.0734 -0.1292,-1.5032 z m 14.772,7.3675 c -1.7188,0 -3.201,-1.4177 -3.201,-3.4368 0,-2.0406 1.4822,-3.4364 3.201,-3.4364 1.7181,0 3.2003,1.3958 3.2003,3.4364 0,2.0191 -1.4822,3.4368 -3.2003,3.4368 z m 0,-9.1075 c -3.137,0 -5.6927,2.3842 -5.6927,5.6707 0,3.265 2.5557,5.6707 5.6927,5.6707 3.1358,0 5.692,-2.4057 5.692,-5.6707 0,-3.2865 -2.5562,-5.6707 -5.692,-5.6707 z m 12.417,9.1075 c -1.7176,0 -3.2003,-1.4177 -3.2003,-3.4368 0,-2.0406 1.4828,-3.4364 3.2003,-3.4364 1.7188,0 3.2005,1.3958 3.2005,3.4364 0,2.0191 -1.4817,3.4368 -3.2005,3.4368 z m 0,-9.1075 c -3.1358,0 -5.6915,2.3842 -5.6915,5.6707 0,3.265 2.5557,5.6707 5.6915,5.6707 3.137,0 5.6927,-2.4057 5.6927,-5.6707 0,-3.2865 -2.5557,-5.6707 -5.6927,-5.6707"
     fill="#ffffff"
     stroke-width="0.13333"
     style="display:none" /><path
     id="path33"
     d="m 63.193,13.042 h -3.8895 v 0.96251 h 2.9146 c -0.0792,0.78545 -0.39172,1.4021 -0.91878,1.85 -0.52705,0.44799 -1.2,0.67292 -1.9958,0.67292 -0.87291,0 -1.6125,-0.30413 -2.2186,-0.90824 -0.59385,-0.61665 -0.89584,-1.3792 -0.89584,-2.2979 0,-0.91864 0.30199,-1.6812 0.89584,-2.2978 0.60612,-0.60412 1.3457,-0.90624 2.2186,-0.90624 0.44799,0 0.87504,0.07707 1.2666,0.24586 0.39172,0.16866 0.70625,0.40412 0.95211,0.70625 l 0.73958,-0.73958 c -0.33546,-0.38132 -0.76038,-0.67292 -1.2876,-0.88544 -0.52705,-0.21253 -1.077,-0.31453 -1.6708,-0.31453 -1.1645,0 -2.1519,0.40412 -2.9582,1.2104 -0.80625,0.80825 -1.2104,1.8041 -1.2104,2.9811 0,1.177 0.40412,2.175 1.2104,2.9813 0.80625,0.80611 1.7937,1.2104 2.9582,1.2104 1.2229,0 2.1979,-0.39172 2.9479,-1.1876 0.66038,-0.66238 0.99784,-1.5582 0.99784,-2.679 0,-0.1896 -0.02293,-0.39172 -0.05627,-0.60425 z m 1.5068,-3.7332 v 8.0249 h 4.6852 v -0.98544 h -3.654 v -2.5457 h 3.2958 V 12.84005 H 65.731 v -2.5437 h 3.654 V 9.30877 Z m 11.255,0.98758 V 9.3088 h -5.5145 v 0.98758 h 2.2417 v 7.0373 h 1.0312 v -7.0373 z M 80.9473,9.3088 h -1.0312 v 8.0249 h 1.0312 z m 6.8066,0.98758 V 9.3088 h -5.5144 v 0.98758 h 2.2415 v 7.0373 h 1.0312 v -7.0373 z m 10.406,0.05626 c -0.79585,-0.81877 -1.7708,-1.2229 -2.9354,-1.2229 -1.1666,0 -2.1415,0.40412 -2.9374,1.2104 -0.79585,0.79585 -1.1874,1.7937 -1.1874,2.9811 0,1.1874 0.39159,2.1854 1.1874,2.9813 0.79585,0.80611 1.7708,1.2104 2.9374,1.2104 1.1541,0 2.1395,-0.40426 2.9354,-1.2104 0.79585,-0.79585 1.1874,-1.7938 1.1874,-2.9813 0,-1.177 -0.39159,-2.1729 -1.1874,-2.9686 z m -5.1332,0.67078 c 0.59372,-0.60412 1.3229,-0.90624 2.1978,-0.90624 0.87291,0 1.6021,0.30213 2.1854,0.90624 0.59372,0.59372 0.88531,1.3686 0.88531,2.2978 0,0.93131 -0.29159,1.7041 -0.88531,2.2979 -0.58332,0.60412 -1.3125,0.90824 -2.1854,0.90824 -0.87491,0 -1.6041,-0.30413 -2.1978,-0.90824 -0.58132,-0.60625 -0.87291,-1.3666 -0.87291,-2.2979 0,-0.92918 0.29159,-1.6916 0.87291,-2.2978 z m 8.7706,1.3125 -0.0437,-1.548 h 0.0437 l 4.0791,6.5457 h 1.077 v -8.0249 h -1.0312 v 4.6957 l 0.0437,1.548 h -0.0437 l -3.8999,-6.2437 h -1.2562 v 8.0249 h 1.0312 z"
     fill="#ffffff"
     stroke="#ffffff"
     stroke-miterlimit="10"
     stroke-width="0.26666"
     style="display:none" /><text
     xml:space="preserve"
     style="font-style:normal;font-variant:normal;font-weight:normal;font-stretch:normal;font-size:14.2221px;line-height:1.25;font-family:'SF Pro';-inkscape-font-specification:'SF Pro';fill:#000000;fill-opacity:1;stroke:none;stroke-width:1.33333"
     x="29.480619"
     y="-15.819111"
     id="text522"><tspan
       sodipodi:role="line"
       id="tspan520"
       style="font-style:normal;font-variant:normal;font-weight:normal;font-stretch:normal;font-size:14.2221px;font-family:'SF Pro';-inkscape-font-specification:'SF Pro';fill:#ffffff;stroke-width:1.33333"
       x="29.480619"
       y="-15.819111">Open Web App Browser</tspan></text><g
     id="g1916"
     transform="matrix(0.07003215,0,0,0.07003215,-19.297691,10.250819)"><rect
       x="32"
       y="64"
       width="448"
       height="320"
       rx="32"
       ry="32"
       fill="none"
       stroke="currentColor"
       stroke-linejoin="round"
       stroke-width="32"
       id="rect1898"
       style="stroke:#ffffff" /><path
       stroke="currentColor"
       stroke-linecap="round"
       stroke-linejoin="round"
       stroke-width="32"
       d="m 304,448 -8,-64 h -80 l -8,64 z"
       id="path1900"
       style="fill:#ffffff;stroke:#ffffff" /><path
       fill="none"
       stroke="currentColor"
       stroke-linecap="round"
       stroke-linejoin="round"
       stroke-width="32"
       d="M 368,448 H 144"
       id="path1902"
       style="stroke:#ffffff" /><path
       d="m 32,304 v 48 a 32.09,32.09 0 0 0 32,32 h 384 a 32.09,32.09 0 0 0 32,-32 v -48 z m 224,64 a 16,16 0 1 1 16,-16 16,16 0 0 1 -16,16 z"
       id="path1904"
       style="fill:#ffffff" /></g><g
     aria-label="Web App"
     id="text439"
     style="font-size:24.8887px;line-height:1.25;font-family:'SF Pro';-inkscape-font-specification:'SF Pro';stroke-width:1.33333"
     transform="translate(-29.33315)"><path
       d="m 63.195264,40.870941 h 3.585042 l 3.232615,-11.751647 h 0.07292 l 3.220462,11.751647 h 3.585042 L 81.54582,23.334616 h -3.803791 l -2.782965,12.565877 h -0.07292 L 71.653533,23.334616 h -3.220461 l -3.232615,12.565877 h -0.07292 L 62.356729,23.334616 h -3.803791 z"
       style="font-weight:bold;-inkscape-font-specification:'SF Pro Bold';fill:#ffffff"
       id="path686" /><path
       d="m 87.682926,41.1383 q 1.397559,0 2.430537,-0.36458 1.045131,-0.364581 1.762139,-0.972215 0.729161,-0.607634 1.154505,-1.336796 0.425344,-0.729161 0.571177,-1.446169 l 0.03646,-0.13368 h -3.25692 l -0.0243,0.07292 q -0.121527,0.364581 -0.461802,0.717009 -0.340276,0.352428 -0.874994,0.583329 -0.534718,0.230901 -1.263879,0.230901 -0.923604,0 -1.592002,-0.401039 -0.668398,-0.413191 -1.032978,-1.17881 -0.352428,-0.76562 -0.352428,-1.847209 v -1.373253 q 0,-1.118047 0.352428,-1.883666 0.36458,-0.777772 0.99652,-1.178811 0.644092,-0.401039 1.470475,-0.401039 0.826383,0 1.44617,0.388886 0.631939,0.388886 0.984367,1.166658 0.352428,0.765619 0.352428,1.907972 v 1.361101 l 1.689223,-2.090262 h -9.053751 v 2.236094 h 10.730822 v -1.093742 q 0,-1.968735 -0.765619,-3.43921 -0.753467,-1.470475 -2.151026,-2.272552 -1.385406,-0.81423 -3.293377,-0.81423 -1.907972,0 -3.317684,0.838535 -1.397559,0.826383 -2.17533,2.357621 -0.76562,1.519086 -0.76562,3.597195 v 0.01215 q 0,2.078109 0.76562,3.597195 0.777771,1.519086 2.211788,2.345468 1.434017,0.81423 3.427058,0.81423 z"
       style="font-weight:bold;-inkscape-font-specification:'SF Pro Bold';fill:#ffffff"
       id="path688" /><path
       d="m 103.28697,41.1383 q 1.64062,0 2.83158,-0.81423 1.19096,-0.81423 1.83505,-2.333315 0.6441,-1.519086 0.6441,-3.633653 v -0.01215 q 0,-2.12672 -0.6441,-3.633653 -0.64409,-1.519086 -1.83505,-2.321163 -1.17881,-0.81423 -2.81942,-0.81423 -0.92361,0 -1.71353,0.303817 -0.77778,0.303817 -1.3611,0.874993 -0.583333,0.559024 -0.947914,1.348949 H 99.20367 V 23.334616 H 95.655086 V 40.870941 H 99.20367 V 38.647 h 0.07292 q 0.352428,0.777772 0.93575,1.336795 0.58333,0.546871 1.3611,0.850688 0.77778,0.303817 1.71353,0.303817 z m -1.17881,-2.94095 q -0.86284,0 -1.51908,-0.461802 -0.656249,-0.473955 -1.020829,-1.336795 -0.364581,-0.862841 -0.364581,-2.041651 v -0.01215 q 0,-1.178811 0.364581,-2.029499 0.376733,-0.86284 1.020829,-1.324642 0.65624,-0.473955 1.51908,-0.473955 0.875,0 1.51909,0.461802 0.65624,0.461802 1.00867,1.324643 0.35243,0.850688 0.35243,2.041651 v 0.01215 q 0,1.17881 -0.35243,2.041651 -0.35243,0.86284 -0.99652,1.336795 -0.64409,0.461802 -1.53124,0.461802 z"
       style="font-weight:bold;-inkscape-font-specification:'SF Pro Bold';fill:#ffffff"
       id="path690" /><path
       d="m 114.52821,40.870941 h 3.8524 l 4.38712,-14.133573 h 1.11805 v -3.402752 h -3.23262 z m 3.29338,-4.25344 h 9.97735 l -0.8993,-2.746507 h -8.17875 z m 9.40618,4.25344 h 3.8524 l -6.1128,-17.536325 h -2.12672 v 3.402752 z"
       style="font-weight:bold;-inkscape-font-specification:'SF Pro Bold';fill:#ffffff"
       id="path692" /><path
       d="m 132.57495,45.124381 h 3.54858 V 38.647 h 0.0729 q 0.36458,0.777772 0.94791,1.336795 0.58332,0.546871 1.37325,0.850688 0.78992,0.303817 1.71353,0.303817 1.64061,0 2.81942,-0.81423 1.17881,-0.81423 1.81075,-2.333315 0.64409,-1.519086 0.64409,-3.633653 v -0.01215 q 0,-2.114567 -0.64409,-3.633653 -0.64409,-1.519086 -1.83505,-2.321163 -1.19097,-0.81423 -2.84373,-0.81423 -0.92361,0 -1.70138,0.303817 -0.76562,0.303817 -1.34895,0.874993 -0.57117,0.571177 -0.9236,1.361101 h -0.0851 v -2.272552 h -3.54858 z m 6.44092,-6.927031 q -0.86284,0 -1.51909,-0.461802 -0.64409,-0.473955 -1.02082,-1.336795 -0.36458,-0.862841 -0.36458,-2.029499 v -0.01215 q 0,-1.190964 0.36458,-2.041652 0.36458,-0.86284 1.02082,-1.324642 0.65625,-0.473955 1.51909,-0.473955 0.87499,0 1.51909,0.461802 0.65624,0.449649 1.00867,1.31249 0.35243,0.862841 0.35243,2.053804 v 0.01215 q 0,1.17881 -0.35243,2.041651 -0.35243,0.86284 -0.99652,1.336795 -0.64409,0.461802 -1.53124,0.461802 z"
       style="font-weight:bold;-inkscape-font-specification:'SF Pro Bold';fill:#ffffff"
       id="path694" /><path
       d="m 147.34046,45.124381 h 3.54858 V 38.647 h 0.0729 q 0.36458,0.777772 0.94791,1.336795 0.58333,0.546871 1.37325,0.850688 0.78992,0.303817 1.71353,0.303817 1.64061,0 2.81942,-0.81423 1.17881,-0.81423 1.81075,-2.333315 0.64409,-1.519086 0.64409,-3.633653 v -0.01215 q 0,-2.114567 -0.64409,-3.633653 -0.64409,-1.519086 -1.83505,-2.321163 -1.19097,-0.81423 -2.84373,-0.81423 -0.92361,0 -1.70138,0.303817 -0.76562,0.303817 -1.34895,0.874993 -0.57117,0.571177 -0.9236,1.361101 h -0.0851 v -2.272552 h -3.54858 z m 6.44092,-6.927031 q -0.86284,0 -1.51909,-0.461802 -0.64409,-0.473955 -1.02082,-1.336795 -0.36458,-0.862841 -0.36458,-2.029499 v -0.01215 q 0,-1.190964 0.36458,-2.041652 0.36458,-0.86284 1.02082,-1.324642 0.65625,-0.473955 1.51909,-0.473955 0.87499,0 1.51909,0.461802 0.65624,0.449649 1.00867,1.31249 0.35243,0.862841 0.35243,2.053804 v 0.01215 q 0,1.17881 -0.35243,2.041651 -0.35243,0.86284 -0.99652,1.336795 -0.64409,0.461802 -1.53124,0.461802 z"
       style="font-weight:bold;-inkscape-font-specification:'SF Pro Bold';fill:#ffffff"
       id="path696" /></g><g
     aria-label="OPEN "
     id="text545"
     style="font-size:14.2221px;line-height:1.25;font-family:'SF Pro Display';-inkscape-font-specification:'SF Pro Display';fill:#ffffff;stroke-width:1.33333"
     transform="translate(-29.33315)"><path
       d="m 62.021666,18.148935 c 2.130195,0 3.458312,-1.494783 3.458312,-3.880185 v -0.01042 c 0,-2.380194 -1.333325,-3.874976 -3.458312,-3.874976 -2.130195,0 -3.468728,1.494782 -3.468728,3.874976 v 0.01042 c 0,2.385402 1.333325,3.880185 3.468728,3.880185 z m 0,-0.864578 c -1.541657,0 -2.510401,-1.16666 -2.510401,-3.015607 v -0.01042 c 0,-1.848947 0.973952,-3.010398 2.510401,-3.010398 1.531241,0 2.499984,1.166659 2.499984,3.010398 v 0.01042 c 0,1.833322 -0.953119,3.015607 -2.499984,3.015607 z"
       style="font-size:10.6666px;fill:#ffffff"
       id="path699" /><path
       d="m 66.646637,18.023935 h 0.937495 V 15.34166 h 1.739572 c 1.41145,0 2.411443,-0.994785 2.411443,-2.42186 v -0.01042 c 0,-1.427075 -0.999993,-2.401027 -2.411443,-2.401027 h -2.677067 z m 2.437485,-6.68225 c 1.07291,0 1.692698,0.588538 1.692698,1.578115 v 0.01042 c 0,0.989577 -0.619788,1.578115 -1.692698,1.578115 h -1.49999 v -3.166647 z"
       style="font-size:10.6666px;fill:#ffffff"
       id="path701" /><path
       d="m 72.808058,18.023935 h 4.656221 v -0.843744 h -3.718727 v -2.583318 h 3.52602 v -0.833328 h -3.52602 v -2.411443 h 3.718727 v -0.843745 h -4.656221 z"
       style="font-size:10.6666px;fill:#ffffff"
       id="path703" /><path
       d="m 78.698645,18.023935 h 0.927077 v -5.932254 h 0.02604 l 4.135391,5.932254 h 0.911452 V 10.508357 H 83.77153 v 5.932255 h -0.02604 l -4.135391,-5.932255 h -0.911452 z"
       style="font-size:10.6666px;fill:#ffffff"
       id="path705" /></g><rect
     style="fill:#000000;stroke:#000000;stroke-width:0.85949;stroke-linejoin:round"
     id="rect630"
     width="9.3810396"
     height="16.191387"
     x="8.864171"
     y="26.246185" /><g
     id="g1896"
     transform="matrix(0.0311051,0,0,0.0311051,5.591791,26.468792)"><rect
       x="128"
       y="16"
       width="256"
       height="480"
       rx="48"
       ry="48"
       fill="none"
       stroke="currentColor"
       stroke-linecap="round"
       stroke-linejoin="round"
       stroke-width="32"
       id="rect1884"
       style="stroke:#ffffff" /><path
       d="m 176,16 h 24 a 8,8 0 0 1 8,8 v 0 a 16,16 0 0 0 16,16 h 64 a 16,16 0 0 0 16,-16 v 0 a 8,8 0 0 1 8,-8 h 24"
       fill="none"
       stroke="currentColor"
       stroke-linecap="round"
       stroke-linejoin="round"
       stroke-width="32"
       id="path1886"
       style="stroke:#ffffff" /></g></svg>
