<?xml version="1.0" encoding="UTF-8" standalone="no"?>
<!-- 
<svg version="1.1" width="100" height="100" xmlns="http://www.w3.org/2000/svg">
   <g id="Symbols">
      <g id="Regular-S" transform="translate(1403.58,696)">
         <path id="path126" class="multicolor-0:tintColor hierarchical-0:tertiary SFSymbolsPreview007AFF"
            d="m -1353.6533,-685.4043 c -5.3711,0 -10.4329,1.02537 -15.1855,3.07617 -4.7526,2.05073 -8.9355,4.89906 -12.5489,8.54492 -3.6132,3.6458 -6.4544,7.84506 -8.5215,12.59766 -2.067,4.75266 -3.0996,9.81448 -3.0996,15.18554 0,5.37106 1.0326,10.43295 3.0996,15.18555 2.0671,4.7526 4.9154,8.95179 8.545,12.59766 3.6296,3.64584 7.8216,6.49414 12.5742,8.54493 4.7526,2.05078 9.8145,3.07617 15.1855,3.07617 5.4037,0 10.4818,-1.02539 15.2344,-3.07617 4.7526,-2.05079 8.9427,-4.89909 12.5723,-8.54493 3.6295,-3.64586 6.4778,-7.84506 8.545,-12.59766 2.0671,-4.7526 3.1016,-9.81449 3.1016,-15.18555 0,-5.37106 -1.0345,-10.43288 -3.1016,-15.18554 -2.0671,-4.7526 -4.9225,-8.95186 -8.5685,-12.59766 -3.6458,-3.64586 -7.845,-6.49419 -12.5976,-8.54492 -4.7526,-2.0508 -9.8307,-3.07617 -15.2344,-3.07617 z m 0.098,19.04297 c 1.0091,0 1.83,0.31643 2.4648,0.95117 0.6348,0.6348 0.9532,1.44143 0.9532,2.41797 v 17.87109 l -0.3907,9.08203 3.7598,-4.73633 4.0527,-4.15039 c 0.6185,-0.651 1.416,-0.97656 2.3926,-0.97656 0.944,0 1.7325,0.31839 2.3672,0.95312 0.6348,0.63474 0.9531,1.4069 0.9531,2.31836 0,0.944 -0.3092,1.74152 -0.9277,2.39258 l -12.9394,12.89063 c -0.879,0.87893 -1.7742,1.31836 -2.6856,1.31836 -0.8789,0 -1.7578,-0.43943 -2.6367,-1.31836 l -12.9883,-12.89063 c -0.5859,-0.61846 -0.8789,-1.41598 -0.8789,-2.39258 0,-0.91146 0.3093,-1.68362 0.9277,-2.31836 0.6185,-0.63473 1.3998,-0.95312 2.3438,-0.95312 0.944,0 1.7416,0.32556 2.3926,0.97656 l 4.1015,4.15039 3.7598,4.6875 -0.3906,-9.0332 v -17.87109 c 0,-0.97654 0.3163,-1.78317 0.9511,-2.41797 0.6348,-0.63473 1.4414,-0.95117 2.418,-0.95117 z"
            style="fill:#000000" />
      </g>
   </g>
</svg>
<?xml version="1.0" encoding="UTF-8"?>
Generator: Apple Native CoreSVG 175 -->

<svg
   version="1.1"
   width="200"
   height="200"
   id="svg13"
   sodipodi:docname="arrow.down.circle.fill.svg"
   inkscape:version="1.2.1 (9c6d41e, 2022-07-14)"
   xmlns:inkscape="http://www.inkscape.org/namespaces/inkscape"
   xmlns:sodipodi="http://sodipodi.sourceforge.net/DTD/sodipodi-0.dtd"
   xmlns="http://www.w3.org/2000/svg"
   xmlns:svg="http://www.w3.org/2000/svg">
  <defs
     id="defs17" />
  <sodipodi:namedview
     id="namedview15"
     pagecolor="#ffffff"
     bordercolor="#666666"
     borderopacity="1.0"
     inkscape:showpageshadow="2"
     inkscape:pageopacity="0.0"
     inkscape:pagecheckerboard="0"
     inkscape:deskcolor="#d1d1d1"
     showgrid="false"
     inkscape:zoom="1.18"
     inkscape:cx="147.88136"
     inkscape:cy="100.42373"
     inkscape:window-width="1920"
     inkscape:window-height="999"
     inkscape:window-x="0"
     inkscape:window-y="25"
     inkscape:window-maximized="1"
     inkscape:current-layer="svg13" />
  <g
     id="Symbols"
     transform="translate(1447.91,620)">
    <g
       id="Regular-M"
       transform="translate(5.67,126)">
      <path
         style="fill:#000000"
         d="m -1353.6533,-685.4043 c -5.3711,0 -10.4329,1.02537 -15.1855,3.07617 -4.7526,2.05073 -8.9355,4.89906 -12.5489,8.54492 -3.6132,3.6458 -6.4544,7.84506 -8.5215,12.59766 -2.067,4.75266 -3.0996,9.81448 -3.0996,15.18554 0,5.37106 1.0326,10.43295 3.0996,15.18555 2.0671,4.7526 4.9154,8.95179 8.545,12.59766 3.6296,3.64584 7.8216,6.49414 12.5742,8.54493 4.7526,2.05078 9.8145,3.07617 15.1855,3.07617 5.4037,0 10.4818,-1.02539 15.2344,-3.07617 4.7526,-2.05079 8.9427,-4.89909 12.5723,-8.54493 3.6295,-3.64586 6.4778,-7.84506 8.545,-12.59766 2.0671,-4.7526 3.1016,-9.81449 3.1016,-15.18555 0,-5.37106 -1.0345,-10.43288 -3.1016,-15.18554 -2.0671,-4.7526 -4.9225,-8.95186 -8.5685,-12.59766 -3.6458,-3.64586 -7.845,-6.49419 -12.5976,-8.54492 -4.7526,-2.0508 -9.8307,-3.07617 -15.2344,-3.07617 z m 0.098,19.04297 c 1.0091,0 1.83,0.31643 2.4648,0.95117 0.6348,0.6348 0.9532,1.44143 0.9532,2.41797 v 17.87109 l -0.3907,9.08203 3.7598,-4.73633 4.0527,-4.15039 c 0.6185,-0.651 1.416,-0.97656 2.3926,-0.97656 0.944,0 1.7325,0.31839 2.3672,0.95312 0.6348,0.63474 0.9531,1.4069 0.9531,2.31836 0,0.944 -0.3092,1.74152 -0.9277,2.39258 l -12.9394,12.89063 c -0.879,0.87893 -1.7742,1.31836 -2.6856,1.31836 -0.8789,0 -1.7578,-0.43943 -2.6367,-1.31836 l -12.9883,-12.89063 c -0.5859,-0.61846 -0.8789,-1.41598 -0.8789,-2.39258 0,-0.91146 0.3093,-1.68362 0.9277,-2.31836 0.6185,-0.63473 1.3998,-0.95312 2.3438,-0.95312 0.944,0 1.7416,0.32556 2.3926,0.97656 l 4.1015,4.15039 3.7598,4.6875 -0.3906,-9.0332 v -17.87109 c 0,-0.97654 0.3163,-1.78317 0.9511,-2.41797 0.6348,-0.63473 1.4414,-0.95117 2.418,-0.95117 z"
         id="path9" />
    </g>
  </g>
</svg>
