<?xml version="1.0" encoding="UTF-8"?>
<!--Generator: Apple Native CoreSVG 175-->
<!DOCTYPE svg
PUBLIC "-//W3C//DTD SVG 1.1//EN"
       "http://www.w3.org/Graphics/SVG/1.1/DTD/svg11.dtd">
<svg version="1.1" xmlns="http://www.w3.org/2000/svg" xmlns:xlink="http://www.w3.org/1999/xlink" width="200" height="200"> 
 <g id="Symbols">
  <g id="Regular-M" transform="matrix(1 0 0 1 5.67 126)">
   <path d="M34.5722 7.09425L45.1703 7.09425Q46.6205 7.09425 47.6117 8.08555L55.1568 15.5569Q59.7725 20.1954 64.1673 20.1699Q68.5621 20.1444 73.1892 15.5569L80.6832 8.08555Q81.6632 7.09425 83.1643 7.09425L93.7115 7.09425Q100.23 7.09425 103.376 3.97372Q106.522 0.853195 106.522-5.7165L106.522-16.2637Q106.522-17.6911 107.514-18.756L114.934-26.2388Q119.623-30.8658 119.598-35.2606Q119.572-39.6554 114.934-44.2825L107.514-51.7652Q106.522-52.8302 106.522-54.2576L106.522-64.8048Q106.522-71.3745 103.402-74.495Q100.281-77.6155 93.7115-77.6155L83.1643-77.6155Q81.6632-77.6155 80.6832-78.6068L73.1892-86.0782Q68.5508-90.728 64.1616-90.7025Q59.7725-90.677 55.1454-86.0782L47.6117-78.6068Q46.6205-77.6155 45.1703-77.6155L34.5722-77.6155Q28.0535-77.6155 24.9386-74.5205Q21.8238-71.4254 21.8238-64.8048L21.8238-54.2576Q21.8238-52.8302 20.8325-51.7652L13.3497-44.2825Q8.71131-39.6554 8.71131-35.2606Q8.71131-30.8658 13.3497-26.2388L20.8325-18.756Q21.8238-17.6911 21.8238-16.2637L21.8238-5.7165Q21.8238 0.853195 24.9386 3.97372Q28.0535 7.09425 34.5722 7.09425ZM58.6903-11.4322Q57.4274-11.4322 56.377-12.0013Q55.3266-12.5704 54.3526-13.8105L42.1286-28.8494Q40.9676-30.3501 40.9676-32.032Q40.9676-33.6742 42.0917-34.869Q43.2158-36.0639 44.8977-36.0639Q45.9453-36.0639 46.8117-35.6279Q47.6781-35.1918 48.5502-34.0026L58.4751-21.1837L79.326-54.6659Q80.7134-56.9027 82.837-56.9027Q84.4056-56.9027 85.6882-55.906Q86.9708-54.9093 86.9708-53.1765Q86.9708-52.3781 86.5659-51.5372Q86.161-50.6962 85.7307-49.9374L62.7618-13.8105Q61.2725-11.4322 58.6903-11.4322Z"/>
  </g>
 </g>
</svg>
