<?xml version="1.0" encoding="UTF-8"?>
<!--Generator: Apple Native CoreSVG 175-->
<!DOCTYPE svg
PUBLIC "-//W3C//DTD SVG 1.1//EN"
       "http://www.w3.org/Graphics/SVG/1.1/DTD/svg11.dtd">
<svg version="1.1" xmlns="http://www.w3.org/2000/svg" xmlns:xlink="http://www.w3.org/1999/xlink" width="200" height="200"> 
 <g id="Symbols">
  <g id="Regular-M" transform="matrix(1 0 0 1 7.54 126)">
   <path d="M8.72266-35.209Q8.72266-22.9253 13.1109-12.0129Q17.4991-1.1005 25.5364 7.23671Q26.8005 8.65614 28.3964 8.58377Q29.9923 8.51141 31.0388 7.35068Q32.075 6.21122 31.9091 4.69825Q31.7433 3.18527 30.4791 1.87999Q23.4663-5.43271 19.7471-14.9774Q16.028-24.5222 16.028-35.209Q16.028-45.8956 19.7471-55.4403Q23.4663-64.9851 30.4791-72.2978Q31.7433-73.6032 31.9091-75.1419Q32.075-76.6807 31.0388-77.7685Q29.9923-78.9292 28.3964-79.0069Q26.8005-79.0845 25.5364-77.7062Q17.4991-69.3173 13.1109-58.4049Q8.72266-47.4925 8.72266-35.209ZM26.182-35.209Q26.182-26.5179 29.1942-18.6738Q32.2064-10.8297 37.7727-4.75654Q39.0887-3.32648 40.731-3.29533Q42.3732-3.26417 43.461-4.51778Q44.5594-5.77139 44.3213-7.23784Q44.0831-8.70429 42.8707-10.1133Q38.3195-15.1925 35.9034-21.6171Q33.4874-28.0418 33.4874-35.209Q33.4874-42.3864 35.9034-48.8317Q38.3195-55.277 42.8707-60.3564Q44.0831-61.7135 44.3213-63.1799Q44.5594-64.6464 43.461-65.9Q42.3732-67.1536 40.731-67.1224Q39.0887-67.0913 37.7727-65.6614Q32.2064-59.5881 29.1942-51.744Q26.182-43.8999 26.182-35.209ZM43.6414-35.209Q43.6414-25.2613 49.7598-17.6525Q50.9722-16.1295 52.6922-16.0778Q54.4123-16.026 55.5211-17.2902Q56.5983-18.5439 56.3031-19.9738Q56.008-21.4038 54.9507-22.8646Q50.9467-28.0178 50.9467-35.209Q50.9467-42.4 54.9507-47.5532Q56.008-49.014 56.3031-50.4439Q56.5983-51.8739 55.5211-53.1275Q54.4123-54.3918 52.6922-54.34Q50.9722-54.2883 49.7598-52.7653Q43.6414-45.1565 43.6414-35.209ZM100.968-35.209Q100.968-45.1565 94.7977-52.7653Q93.637-54.2883 91.9119-54.34Q90.1867-54.3918 89.0366-53.1275Q87.9593-51.8739 88.2804-50.4439Q88.6015-49.014 89.6585-47.5532Q93.6627-42.4 93.6627-35.209Q93.6627-28.0178 89.6585-22.8646Q88.6015-21.4038 88.2804-19.9738Q87.9593-18.5439 89.0366-17.2902Q90.1867-16.026 91.9119-16.0778Q93.637-16.1295 94.7977-17.6525Q100.968-25.2613 100.968-35.209ZM118.427-35.209Q118.427-43.8999 115.415-51.744Q112.403-59.5881 106.785-65.6614Q105.521-67.0913 103.878-67.1224Q102.236-67.1536 101.097-65.9Q100.05-64.6464 100.262-63.1799Q100.475-61.7135 101.739-60.3564Q106.29-55.277 108.706-48.8317Q111.122-42.3864 111.122-35.209Q111.122-28.0418 108.706-21.6171Q106.29-15.1925 101.739-10.1133Q100.475-8.70429 100.262-7.23784Q100.05-5.77139 101.097-4.51778Q102.236-3.26417 103.878-3.29533Q105.521-3.32648 106.785-4.75654Q112.403-10.8297 115.415-18.6738Q118.427-26.5179 118.427-35.209ZM135.887-35.209Q135.887-47.4925 131.473-58.4049Q127.059-69.3173 119.073-77.7062Q117.757-79.0845 116.187-79.0069Q114.617-78.9292 113.571-77.7685Q112.483-76.6807 112.674-75.1419Q112.866-73.6032 114.13-72.2978Q121.133-64.9851 124.857-55.4403Q128.581-45.8956 128.581-35.209Q128.581-24.5222 124.857-14.9774Q121.133-5.43271 114.13 1.87999Q112.866 3.18527 112.674 4.69825Q112.483 6.21122 113.571 7.35068Q114.617 8.51141 116.187 8.58377Q117.757 8.65614 119.073 7.23671Q127.059-1.1005 131.473-12.0129Q135.887-22.9253 135.887-35.209ZM63.4086-35.0844Q63.4086-31.5551 66.0609-28.9651Q68.7132-26.3751 72.3669-26.3751Q75.9692-26.3751 78.585-28.9651Q81.2008-31.5551 81.2008-35.209Q81.2008-38.8627 78.6108-41.4838Q76.0208-44.105 72.3669-44.105Q68.7132-44.105 66.0609-41.4215Q63.4086-38.7381 63.4086-35.0844Z"/>
  </g>
 </g>
</svg>
