<?xml version="1.0" encoding="UTF-8"?>
<!--Generator: Apple Native CoreSVG 175-->
<!DOCTYPE svg
PUBLIC "-//W3C//DTD SVG 1.1//EN"
       "http://www.w3.org/Graphics/SVG/1.1/DTD/svg11.dtd">
<svg version="1.1" xmlns="http://www.w3.org/2000/svg" xmlns:xlink="http://www.w3.org/1999/xlink" width="200" height="200">
 <g id="Symbols">
  <g id="Regular-M" transform="matrix(1 0 0 1 8.41 126)">
   <path style="fill:#008000" d="M10.1651-75.6055Q9.40801-71.8968 9.06533-67.4684Q8.72266-63.04 8.72266-59.7811Q8.72266-46.0961 12.6209-34.9652Q16.5192-23.8342 23.7292-15.8339Q30.9393-7.83351 41.056-3.51911Q51.1727 0.795287 63.599 0.795287Q71.6581 0.795287 77.6252-1.16486Q83.5924-3.125 87.6734-5.98897Q91.7543-8.85294 94.1033-11.5805Q96.4522-14.3081 97.2748-15.8325L91.201-16.0029Q94.3564-12.6702 96.5251-9.07911Q98.6937-5.48801 100.328-1.32463Q101.963 2.83874 103.584 7.90946Q104.134 9.6329 105.24 10.3389Q106.346 11.0448 107.622 11.0448Q110.322 11.0448 112.236 8.95809Q114.151 6.87138 114.151 3.62205Q114.151 1.08768 112.584-2.13688Q111.016-5.36144 108.655-8.68942Q106.294-12.0174 103.803-14.8729Q101.311-17.7283 99.4118-19.5141Q94.0756-24.4458 88.0082-27.135Q81.9408-29.8241 75.6605-31.2466Q69.3803-32.669 63.3852-33.707Q57.3901-34.745 52.204-36.3281Q47.018-37.9111 43.087-40.9214Q39.156-43.9316 37.0557-49.35Q36.5774-50.6373 37.605-51.338Q38.6325-52.0388 39.8364-50.8242Q44.0203-46.6403 48.614-44.6471Q53.2077-42.6538 58.0665-41.9114Q62.9253-41.169 68.0333-40.7534Q73.1413-40.3379 78.3638-39.3822Q83.5864-38.4266 88.8717-36.0327Q94.1571-33.6388 99.4222-28.7684Q100.666-27.69 101.88-28.1099Q103.093-28.5298 103.321-29.8372Q103.508-30.8867 103.602-32.4602Q103.695-34.0337 103.695-35.665Q103.695-47.594 98.5772-55.406Q93.4591-63.2179 84.437-67.0951Q75.4148-70.9723 63.7648-70.9723Q57.9103-70.9723 51.4911-69.998Q45.072-69.0237 39.7041-69.0237Q35.775-69.0237 31.6298-69.4973Q27.4845-69.9709 23.4764-71.6958Q19.4683-73.4207 15.9505-77.1907Q14.4678-78.7263 12.6117-78.4305Q10.7557-78.1348 10.1651-75.6055Z"/>
  </g>
 </g>
</svg>
