<?xml version="1.0" encoding="UTF-8"?>
<!--Generator: Apple Native CoreSVG 175-->
<!DOCTYPE svg
PUBLIC "-//W3C//DTD SVG 1.1//EN"
       "http://www.w3.org/Graphics/SVG/1.1/DTD/svg11.dtd">
<svg version="1.1" xmlns="http://www.w3.org/2000/svg" xmlns:xlink="http://www.w3.org/1999/xlink" width="200" height="200"> 
 <g id="Symbols">
  <g id="Regular-M" transform="matrix(1 0 0 1 6.63 126)">
   <path d="M30.0173 10.9694L76.468 10.9694Q81.182 10.9694 83.5026 8.56596Q85.8231 6.16249 85.8231 1.0123L85.8231-34.7969Q85.8231-39.8952 83.5026-42.3246Q81.182-44.754 76.468-44.754L30.9901-44.6505Q26.2348-44.6505 23.4226-42.247Q20.6103-39.8436 20.6103-34.7969L20.6103 1.0123Q20.6103 6.16249 22.9309 8.56596Q25.2516 10.9694 30.0173 10.9694ZM28.3717-41.4388L36.2664-41.4388L36.2664-57.9958Q36.2664-64.1249 38.6038-68.3181Q40.9412-72.5113 44.8071-74.6427Q48.673-76.774 53.2167-76.774Q57.7604-76.774 61.6211-74.6427Q65.4818-72.5113 67.8503-68.3181Q70.2189-64.1249 70.2189-57.9958L70.2189-41.4388L78.0723-41.4388L78.0723-56.9512Q78.0723-66.1664 74.5177-72.2295Q70.9631-78.2926 65.279-81.2684Q59.595-84.2442 53.2167-84.2442Q46.8386-84.2442 41.1545-81.2684Q35.4705-78.2926 31.9211-72.2295Q28.3717-66.1664 28.3717-56.9512Z"/>
  </g>
 </g>
</svg>
