<?xml version="1.0" encoding="UTF-8"?>
<!--Generator: Apple Native CoreSVG 175-->
<!DOCTYPE svg
PUBLIC "-//W3C//DTD SVG 1.1//EN"
       "http://www.w3.org/Graphics/SVG/1.1/DTD/svg11.dtd">
<svg version="1.1" xmlns="http://www.w3.org/2000/svg" xmlns:xlink="http://www.w3.org/1999/xlink" width="200" height="200">
 <g id="Symbols">
  <g id="Regular-M" transform="matrix(1 0 0 1 0.85 126)">
   <path d="M73.8 9.46054L135.093 9.46054Q140.838 9.46054 143.178 7.83154Q145.519 6.20255 145.519 2.9838Q145.519-1.74072 142.668-6.95845Q139.818-12.1762 134.471-16.7398Q129.123-21.3034 121.522-24.1589Q113.922-27.0143 104.421-27.0143Q94.9196-27.0143 87.3396-24.1589Q79.7595-21.3034 74.4171-16.7398Q69.0748-12.1762 66.2193-6.95845Q63.3639-1.74072 63.3639 2.9838Q63.3639 6.20255 65.6782 7.83154Q67.9926 9.46054 73.8 9.46054ZM104.442-35.7475Q109.696-35.7475 114.145-38.5977Q118.594-41.4479 121.288-46.3436Q123.982-51.2393 123.982-57.324Q123.982-63.3349 121.283-68.0854Q118.584-72.8359 114.13-75.5673Q109.675-78.2986 104.442-78.2986Q99.2494-78.2986 94.7951-75.5207Q90.3408-72.7429 87.6364-67.9613Q84.9319-63.1797 84.9424-57.2205Q84.9424-51.1876 87.6416-46.3178Q90.3408-41.4479 94.7898-38.5977Q99.2388-35.7475 104.442-35.7475ZM21.0827 9.46054L58.1022 9.46054Q56.2013 6.69347 56.288 2.79714Q56.3746-1.09919 58.0966-5.40247Q59.8186-9.70574 62.8287-13.7613Q65.8389-17.8168 69.7546-20.8508Q65.7048-23.574 60.371-25.367Q55.0371-27.1601 48.2219-27.1601Q39.9564-27.1601 33.3473-24.445Q26.7382-21.7299 22.0812-17.3274Q17.4242-12.925 14.9426-7.69663Q12.4609-2.46826 12.4609 2.60997Q12.4609 5.90166 14.4484 7.6811Q16.4358 9.46054 21.0827 9.46054ZM48.243-34.6366Q52.8123-34.6366 56.6747-37.1129Q60.5371-39.5893 62.8989-43.862Q65.2606-48.1347 65.2606-53.4199Q65.2606-58.6833 62.8936-62.7901Q60.5265-66.8969 56.6588-69.2855Q52.7912-71.6742 48.243-71.6742Q43.7359-71.6742 39.8424-69.2597Q35.9488-66.8452 33.5871-62.6919Q31.2253-58.5386 31.2357-53.3164Q31.2357-48.0828 33.5923-43.836Q35.9488-39.5893 39.8371-37.1129Q43.7253-34.6366 48.243-34.6366Z"/>
  </g>
 </g>
</svg>
