<?xml version="1.0" encoding="UTF-8"?>
<!--Generator: Apple Native CoreSVG 175-->
<!DOCTYPE svg
PUBLIC "-//W3C//DTD SVG 1.1//EN"
       "http://www.w3.org/Graphics/SVG/1.1/DTD/svg11.dtd">
<svg version="1.1" xmlns="http://www.w3.org/2000/svg" xmlns:xlink="http://www.w3.org/1999/xlink" width="200" height="200">
 <g id="Symbols">
  <g id="Regular-M" transform="matrix(1 0 0 1 6.68 126)">
   <path d="M52.0457 11.6247L117.41 11.6247Q123.792 11.6247 127.103 8.3868Q130.413 5.14892 130.413-1.23379L130.413-4.33283L107.809-25.73Q106.385-27.0701 104.687-27.7248Q102.989-28.3795 101.171-28.3795Q99.3735-28.3795 97.7483-27.756Q96.123-27.1324 94.5751-25.7923L74.8752-8.32687L67.0258-15.4085Q65.6446-16.6757 64.1598-17.2835Q62.6751-17.8912 61.0753-17.8912Q59.6413-17.8912 58.2758-17.2888Q56.9103-16.6863 55.4773-15.4708L39.032-1.19258Q39.032 5.20077 42.3475 8.41273Q45.6629 11.6247 52.0457 11.6247ZM71.348-24.6728Q75.6575-24.6728 78.6692-27.7363Q81.6809-30.7999 81.6809-35.12Q81.6809-39.3155 78.6692-42.3842Q75.6575-45.4529 71.348-45.4529Q67.0902-45.4529 64.0579-42.3842Q61.0256-39.3155 61.0256-35.12Q61.0256-30.7999 64.0579-27.7363Q67.0902-24.6728 71.348-24.6728ZM27.7789-8.39669L39.9309-8.39669L39.9309-16.2502L27.9035-16.2502Q24.2435-16.2502 22.279-18.1889Q20.3144-20.1276 20.3144-23.9428L20.3144-69.1505Q20.3144-72.9656 22.279-74.8837Q24.2435-76.8019 27.9035-76.8019L93.7741-76.8019Q97.4023-76.8019 99.388-74.8837Q101.374-72.9656 101.374-69.1505L101.374-58.9224L109.217-58.9224L109.217-69.5338Q109.217-77.0782 105.392-80.8873Q101.568-84.6964 93.8987-84.6964L27.7789-84.6964Q20.1099-84.6964 16.2854-80.8978Q12.4609-77.0993 12.4609-69.5338L12.4609-23.5078Q12.4609-15.9423 16.2854-12.1695Q20.1099-8.39669 27.7789-8.39669ZM51.9019 14.2068L118.558 14.2068Q126.216 14.2068 130.046 10.3976Q133.876 6.58847 133.876-0.904111L133.876-46.9819Q133.876-54.5264 130.046-58.3096Q126.216-62.0929 118.558-62.0929L51.9019-62.0929Q44.2329-62.0929 40.4084-58.3149Q36.584-54.5368 36.584-46.9819L36.584-0.904111Q36.584 6.66141 40.4084 10.4341Q44.2329 14.2068 51.9019 14.2068ZM52.0265 6.36397Q48.3666 6.36397 46.3967 4.41992Q44.4268 2.47588 44.4268-1.32863L44.4268-46.5468Q44.4268-50.3619 46.3967-52.3007Q48.3666-54.2394 52.0265-54.2394L118.433-54.2394Q122.051-54.2394 124.037-52.3007Q126.022-50.3619 126.022-46.5468L126.022-1.32863Q126.022 2.47588 124.037 4.41992Q122.051 6.36397 118.433 6.36397Z"/>
  </g>
 </g>
</svg>
