<?xml version="1.0" encoding="UTF-8"?>
<!--Generator: Apple Native CoreSVG 175-->
<!DOCTYPE svg
PUBLIC "-//W3C//DTD SVG 1.1//EN"
       "http://www.w3.org/Graphics/SVG/1.1/DTD/svg11.dtd">
<svg version="1.1" xmlns="http://www.w3.org/2000/svg" xmlns:xlink="http://www.w3.org/1999/xlink" width="200" height="200">
 <g id="Symbols">
  <g id="Regular-M" transform="matrix(1 0 0 1 5.68 126)">
   <path d="M30.7334 12.198Q32.2879 13.3586 34.1847 13.017Q36.0814 12.6754 38.3416 10.975L64.1638-7.97072L90.0378 10.975Q92.3084 12.6754 94.2052 13.017Q96.1019 13.3586 97.6049 12.198Q99.1078 11.0373 99.4034 9.17167Q99.6991 7.30605 98.7866 4.63088L88.629-25.7511L114.679-44.4791Q116.94-46.0655 117.846-47.7759Q118.753-49.4862 118.141-51.3101Q117.54-53.0929 115.841-53.9483Q114.141-54.8037 111.31-54.8037L79.339-54.5862L69.6059-85.134Q68.7557-87.7985 67.4082-89.1562Q66.0606-90.5139 64.1638-90.5139Q62.2775-90.5139 60.9558-89.1562Q59.6341-87.7985 58.7322-85.134L48.9991-54.5862L17.0278-54.8037Q14.2493-54.8037 12.5236-53.9483Q10.7978-53.0929 10.1969-51.3101Q9.58544-49.4862 10.4921-47.7759Q11.3988-46.0655 13.6588-44.4791L39.7092-25.7511L29.5516 4.63088Q28.6391 7.30605 28.9347 9.17167Q29.2304 11.0373 30.7334 12.198Z"/>
  </g>
 </g>
</svg>
